<?xml version="1.0" encoding="utf-8"?>
<!-- Generator: Adobe Illustrator 16.0.0, SVG Export Plug-In . SVG Version: 6.00 Build 0)  -->
<!DOCTYPE svg PUBLIC "-//W3C//DTD SVG 1.1//EN" "http://www.w3.org/Graphics/SVG/1.1/DTD/svg11.dtd">
<svg version="1.1" id="レイヤー_1" xmlns="http://www.w3.org/2000/svg" xmlns:xlink="http://www.w3.org/1999/xlink" x="0px"
	 y="0px" width="268px" height="255px" viewBox="0 0 268 255" enable-background="new 0 0 268 255" xml:space="preserve">
<g>
	<circle fill="none" stroke="#FFFFFF" stroke-width="15" stroke-miterlimit="10" cx="134.2" cy="127.6" r="115.1"/>
	<circle fill="#ABABAB" cx="134.2" cy="127.6" r="66.3"/>
</g>
<path fill="#CCCCCC" d="M253,56.3c0,15.6-12.6,28.2-28.2,28.2c-15.6,0-28.2-12.6-28.2-28.2c0-15.6,12.601-28.2,28.2-28.2
	C240.3,28.1,253,40.7,253,56.3z"/>
<g id="Layer_2" display="none">
</g>
<g id="Layer_4" display="none">
</g>
<g id="Layer_3" display="none">
	<g display="inline">
		<g>
			<circle fill="none" stroke="#000000" stroke-width="15" stroke-miterlimit="10" cx="68.6" cy="183.9" r="58.2"/>
			<circle fill="#ABABAB" cx="68.6" cy="183.9" r="33.5"/>
		</g>
		<g>
			<circle fill="none" stroke="#000000" stroke-width="15" stroke-miterlimit="10" cx="134.1" cy="70.9" r="58.2"/>
			<circle fill="#ABABAB" cx="134.1" cy="70.9" r="33.5"/>
		</g>
		<g>
			<circle fill="none" stroke="#000000" stroke-width="15" stroke-miterlimit="10" cx="199.9" cy="183.9" r="58.2"/>
			<circle fill="#ABABAB" cx="199.9" cy="183.9" r="33.5"/>
		</g>
		<circle fill="#ABABAB" cx="97.6" cy="138.1" r="14.3"/>
		<circle fill="#ABABAB" cx="126" cy="184.9" r="14.3"/>
		<circle fill="#ABABAB" cx="141.6" cy="184.9" r="14.3"/>
		<circle fill="#ABABAB" cx="172.6" cy="137.5" r="14.3"/>
		<circle fill="#ABABAB" cx="105.7" cy="119.8" r="14.3"/>
		<circle fill="#ABABAB" cx="166.4" cy="120.8" r="14.3"/>
	</g>
</g>
</svg>
