<?xml version="1.0" encoding="utf-8"?>
<!-- Generator: Adobe Illustrator 16.0.0, SVG Export Plug-In . SVG Version: 6.00 Build 0)  -->
<!DOCTYPE svg PUBLIC "-//W3C//DTD SVG 1.1//EN" "http://www.w3.org/Graphics/SVG/1.1/DTD/svg11.dtd">
<svg version="1.1" xmlns="http://www.w3.org/2000/svg" xmlns:xlink="http://www.w3.org/1999/xlink" x="0px" y="0px"
	 width="77.961px" height="77.96px" viewBox="0 0 77.961 77.96" enable-background="new 0 0 77.961 77.96" xml:space="preserve">
<g id="Capa_1" display="none">
	<g display="inline">
		<path fill="#00C090" d="M33.597,16.789c0-9.06,7.344-16.404,16.404-16.404s16.403,7.344,16.403,16.404
			c0,9.059-7.344,16.403-16.403,16.403S33.597,25.848,33.597,16.789z M56.96,34.311H43.041c-5.707,0-10.884,2.295-14.673,6.003
			h21.866v33.619H39.793c2.729,0.566,2.727,1.338,2.727,2.135c0,0.297,0,0.631-0.256,0.965c3.41,0.383,6.598,0.545,9.549,0.545
			c15.438,0,24.383-4.402,24.938-4.684l1.098-0.557h0.115V55.312C77.962,43.732,68.54,34.311,56.96,34.311z M40.227,76.06
			c0,0.834-6.874,1.51-15.354,1.51c-8.481,0-15.354-0.676-15.354-1.51c0-0.6,3.546-1.111,8.678-1.354v-2.281H0V41.806h47.939v30.619
			H29.743v2.207C35.834,74.832,40.227,75.394,40.227,76.06z M44.79,69.8V44.167H3.148V69.8H44.79z M11.481,67.73h2.75v-15h-2.75
			V67.73z M15.606,67.73h2.75V55.943h-2.75V67.73z M19.606,67.73h2.75V48.48h-2.75V67.73z M32.095,67.73h2.75v-15h-2.75V67.73z
			 M27.97,67.73h2.75V55.943h-2.75V67.73z M23.97,67.73h2.75V50.605h-2.75V67.73z"/>
	</g>
</g>
<g id="レイヤー_2">
	<g>
		<path fill="none" d="M44.211,62.242c0.592,0.156,1.188,0.268,1.797,0.312c1.444,0.102,2.843-0.07,4.198-0.516
			c1.354-0.445,2.624-1.168,3.806-2.162c1.184-1,2.188-2.249,3.018-3.748c0.33-0.594,0.598-1.201,0.828-1.816
			C54.404,58.343,49.635,61.206,44.211,62.242z"/>
		<path fill="#05C090" d="M29.592,18.653c1.887-0.296,3.798-0.205,5.732,0.279c1.932,0.481,3.772,1.397,5.52,2.745
			c2.229,1.719,3.783,3.722,4.662,6.01c0.877,2.286,1.076,4.614,0.596,6.981l-3.713-1.352c0.264-1.716,0.066-3.372-0.601-4.967
			c-0.667-1.596-1.724-2.951-3.171-4.067c-1.204-0.929-2.513-1.554-3.922-1.874c-1.412-0.318-2.821-0.36-4.229-0.125
			c-1.407,0.236-2.77,0.758-4.088,1.564c-1.322,0.809-2.503,1.891-3.549,3.245c-1.023,1.326-1.759,2.75-2.214,4.274
			c-0.455,1.522-0.623,3.015-0.5,4.479c0.12,1.462,0.509,2.84,1.166,4.14c0.655,1.298,1.571,2.4,2.745,3.307
			c0.754,0.581,1.581,1.051,2.481,1.41c0.9,0.358,1.812,0.594,2.734,0.703c0.924,0.113,1.798,0.102,2.621-0.031
			c0.533-0.087,1.002-0.251,1.442-0.451l7.272-7.215l-0.018-0.017c0.883-0.728,1.89-1.291,3.021-1.686
			c1.13-0.396,2.332-0.623,3.604-0.678c1.271-0.06,2.568,0.071,3.891,0.39c1.324,0.32,2.601,0.82,3.834,1.501
			c1.896,1.051,3.445,2.376,4.648,3.974c1.2,1.602,2.037,3.346,2.512,5.236c0.044,0.174,0.068,0.348,0.104,0.521
			c0.932-2.555,1.439-5.309,1.439-8.183c0-13.199-10.699-23.901-23.901-23.901c-6.062,0-11.595,2.262-15.809,5.98
			c0.1-0.062,0.193-0.136,0.294-0.196C25.906,19.618,27.706,18.952,29.592,18.653z"/>
		<path fill="#05C090" d="M29.094,49.099c-1.156-0.152-2.311-0.455-3.462-0.928c-1.26-0.516-2.448-1.205-3.561-2.062
			c-1.718-1.324-3.049-2.869-3.996-4.63c-0.945-1.765-1.51-3.616-1.692-5.559c-0.07-0.737-0.07-1.472-0.034-2.206
			c-0.351,1.629-0.54,3.319-0.54,5.054c0,6.477,2.581,12.348,6.763,16.653c1.048-0.945,2.14-1.974,3.289-3.113L29.094,49.099z"/>
		<path fill="#05C090" d="M34.524,58.972c-1.213-2.13-1.761-4.399-1.645-6.813l3.876,0.776c-0.002,1.734,0.443,3.341,1.344,4.82
			c0.901,1.475,2.149,2.654,3.748,3.539c0.771,0.424,1.56,0.732,2.364,0.947c5.424-1.036,10.193-3.898,13.646-7.93
			c0.338-0.896,0.586-1.807,0.716-2.738c0.218-1.576,0.159-3.076-0.184-4.506c-0.34-1.426-0.933-2.732-1.777-3.914
			c-0.844-1.186-1.915-2.139-3.214-2.858c-0.83-0.457-1.719-0.797-2.664-1.016c-0.943-0.22-1.88-0.313-2.811-0.282
			c-0.93,0.029-1.789,0.169-2.585,0.427c-0.778,0.253-1.425,0.617-1.95,1.091l0.035,0.035l-7.189,7.132l0.09,0.126
			c-0.153,0.094-0.314,0.171-0.472,0.256l-7.16,7.1c-1.045,1.038-2.069,2.004-3.072,2.91c3.434,2.508,7.558,4.121,12.039,4.503
			C36.367,61.526,35.302,60.335,34.524,58.972z"/>
		<path d="M36.325,47.808l-0.09-0.126l-0.382,0.382C36.011,47.979,36.172,47.902,36.325,47.808z"/>
	</g>
</g>
</svg>
