<?xml version="1.0" encoding="utf-8"?>
<!-- Generator: Adobe Illustrator 16.0.0, SVG Export Plug-In . SVG Version: 6.00 Build 0)  -->
<!DOCTYPE svg PUBLIC "-//W3C//DTD SVG 1.1//EN" "http://www.w3.org/Graphics/SVG/1.1/DTD/svg11.dtd">
<svg version="1.1" id="Capa_1" xmlns="http://www.w3.org/2000/svg" xmlns:xlink="http://www.w3.org/1999/xlink" x="0px" y="0px"
	 width="100px" height="100px" viewBox="0 0 100 100" enable-background="new 0 0 100 100" xml:space="preserve">
<g>
	<path fill="#00C090" d="M58.271,78.627c-1.109-0.815-1.229-2.041-1.229-2.041l-0.416-2.66H43.371l-0.417,2.658
		c0,0-0.116,1.227-1.225,2.043c-1.109,0.813-1.983,1.514-1.109,1.634c0.843,0.113,8.794,0.009,9.38,0
		c0.588,0.009,8.535,0.113,9.378,0C60.252,80.143,59.377,79.443,58.271,78.627z"/>
	<g>
		<path fill="#00C090" d="M35.066,57.385c3.542-0.029,3.983-0.882,5.138-4.438c2.129-5.613,11.717,1.469,5.775,3.927
			S31.524,57.412,35.066,57.385z"/>
		<path fill="#00C090" d="M71.383,20.403c-1.721-1.385-4.567-0.702-6.361,1.523L46.852,47.742c-1.794,2.225-1.785,1.8-0.066,3.184
			c1.719,1.385,1.305,1.483,3.098-0.741l21.361-23.243C73.039,24.715,73.102,21.788,71.383,20.403z M66.709,23.494
			c0,0-0.266-0.309-1.15-1.017c1.326-2.168,3.936-1.771,3.936-1.771C67.021,22.167,66.709,23.494,66.709,23.494z"/>
	</g>
	<path fill="#00C090" d="M79.439,29.127h-7.99l-3.529,3.84h10.24v30.72H21.84v-30.72h32.761l2.706-3.84H20.56
		c-1.414,0-2.56,1.146-2.56,2.56v37.12c0,1.414,1.146,2.561,2.56,2.561h58.88c1.414,0,2.561-1.146,2.561-2.561v-37.12
		C82,30.273,80.854,29.127,79.439,29.127z"/>
</g>
</svg>
