<?xml version="1.0" encoding="utf-8"?>
<!-- Generator: Adobe Illustrator 16.0.0, SVG Export Plug-In . SVG Version: 6.00 Build 0)  -->
<!DOCTYPE svg PUBLIC "-//W3C//DTD SVG 1.1//EN" "http://www.w3.org/Graphics/SVG/1.1/DTD/svg11.dtd">
<svg version="1.1" id="Capa_1" xmlns="http://www.w3.org/2000/svg" xmlns:xlink="http://www.w3.org/1999/xlink" x="0px" y="0px"
	 width="77.961px" height="77.96px" viewBox="0 0 77.961 77.96" enable-background="new 0 0 77.961 77.96" xml:space="preserve">
<g>
	<path fill="#00C090" d="M35.536,24.778c0-5.798,4.7-10.499,10.498-10.499s10.498,4.7,10.498,10.499s-4.7,10.498-10.498,10.498
		S35.536,30.577,35.536,24.778z M50.488,35.993H41.58c-3.653,0-6.966,1.469-9.391,3.842h13.994v21.517h-6.683
		c1.746,0.362,1.745,0.855,1.745,1.366c0,0.189,0,0.403-0.164,0.617c2.184,0.245,4.223,0.349,6.111,0.349
		c9.881,0,15.605-2.817,15.96-2.997l0.702-0.356h0.074V49.433C63.93,42.022,57.899,35.993,50.488,35.993z M39.778,62.711
		c0,0.534-4.398,0.967-9.826,0.967s-9.826-0.433-9.826-0.967c0-0.384,2.27-0.711,5.554-0.865v-1.46H14.034V40.79h30.681v19.597
		H33.069v1.412C36.968,61.925,39.778,62.286,39.778,62.711z M42.699,58.706V42.3H16.048v16.405H42.699z M21.382,57.38h1.76v-9.6
		h-1.76V57.38z M24.021,57.38h1.76v-7.544h-1.76V57.38z M26.582,57.38h1.76V45.061h-1.76V57.38z M34.575,57.38h1.76v-9.6h-1.76
		V57.38z M31.935,57.38h1.76v-7.544h-1.76V57.38z M29.375,57.38h1.76V46.421h-1.76V57.38z"/>
</g>
</svg>
